<svg width="605" height="861" viewBox="0 0 605 861" fill="none" xmlns="http://www.w3.org/2000/svg">
<path d="M100.546 0.362843C117.525 -1.50407 138.007 4.01768 152.642 12.6873C174.252 25.5237 189.838 46.4626 195.933 70.8471C202.705 98.9016 196.146 128.511 178.16 151.081C167.141 164.959 158.025 171.49 148.429 188.054C121.866 233.907 121.748 287.424 151.662 331.709C162.346 347.527 169.878 360.363 179.5 379.5C184.495 389.434 188 395 191.944 406.997C201.692 436.649 205.282 464.724 233.828 481.183C254.519 492.988 279.057 496.074 302.025 489.755C347.458 477.148 371.381 434.68 373.162 389.835C374.467 357.132 363.047 338.461 381.484 306.644C391.746 288.768 408.756 275.761 428.698 270.544C448.335 265.447 469.196 268.451 486.592 278.883C503.981 289.36 516.448 306.366 521.205 326.102C529.753 360.272 513.827 395.858 482.655 412.249C473.752 416.928 465.608 418.519 456.234 421.462C404.641 437.66 382.745 494.072 395.511 544.024C407.206 589.781 442.077 628.51 488.937 639.201C496.995 641.044 504.691 641.037 512.811 641.693C528.382 642.856 543.463 647.681 556.823 655.763C579.497 669.332 595.79 691.424 602.048 717.098C608.263 743.17 603.842 770.638 589.771 793.446C575.902 816.236 553.449 832.481 527.469 838.524C500.84 844.641 475.209 839.4 452.205 825.09C423.273 805.582 405.437 773.069 406.692 738.124C407.347 719.78 409.68 707.619 407.709 688.626C399.571 610.202 332.928 528.98 247.35 538.948C215.521 542.585 186.454 558.756 166.577 583.879C141.215 616.166 132.5 662.242 153.152 698.802C165.08 719.915 175.475 729.62 178.539 755.404C181.603 780.692 174.307 806.152 158.311 825.978C143.581 844.372 121.334 857.53 97.7808 860.102C74.4428 862.747 51.0197 855.901 32.7785 841.108C14.6444 826.351 3.05782 805.037 0.530838 781.794C-3.30403 744.168 13.9813 715.004 41.3036 691.902C45.0313 688.754 49.7797 683.042 52.8762 679.227C89.7774 633.114 94.576 569.067 64.96 517.97C52.8571 497.36 35.5951 483.589 26.4203 461.718C6.98453 415.376 22.2474 378.12 53.3868 343.416C89.9629 300.625 94.7131 232.947 63.0784 186.376C41.8846 155.176 18.6128 143.662 14.5342 102.056C12.175 76.9621 20.0517 51.9789 36.3764 32.7752C52.9999 12.958 75.093 2.6896 100.546 0.362843Z" fill="#D7DDE5"/>
</svg>
