<svg preserveAspectRatio="none" width="100%" height="100%" overflow="visible" style="display: block;" viewBox="0 0 132.587 132.405" fill="none" xmlns="http://www.w3.org/2000/svg">
<g id="Group 93">
<ellipse id="Ellipse 22" cx="66.2936" cy="66.2023" rx="66.2936" ry="66.2023" fill="var(--fill-0, #BDE3FF)" fill-opacity="0.79"/>
<path id="Vector" d="M65.9407 63.8044C64.4135 63.8044 63.1867 65.0294 63.1867 66.5546C63.1867 68.0797 64.4135 69.3048 65.9407 69.3048C67.4679 69.3048 68.6947 68.0797 68.6947 66.5546C68.6947 65.0294 67.4679 63.8044 65.9407 63.8044ZM65.9407 41.5526C52.1206 41.5526 40.9043 52.7535 40.9043 66.5546C40.9043 80.3556 52.1206 91.5565 65.9407 91.5565C79.7608 91.5565 90.9771 80.3556 90.9771 66.5546C90.9771 52.7535 79.7608 41.5526 65.9407 41.5526ZM71.4237 72.03L50.9189 81.5557L60.4577 61.0791L80.9626 51.5534L71.4237 72.03Z" fill="var(--fill-0, #70B9BE)"/>
</g>
</svg>
