<svg preserveAspectRatio="none" width="100%" height="100%" overflow="visible" style="display: block;" viewBox="0 0 132.587 132.405" fill="none" xmlns="http://www.w3.org/2000/svg">
<g id="Group 95">
<ellipse id="Ellipse 24" cx="66.2936" cy="66.2023" rx="66.2936" ry="66.2023" fill="var(--fill-0, #BDE3FF)" fill-opacity="0.79"/>
<path id="Vector" d="M59.3818 88.352C59.3818 89.6021 60.3832 90.8522 61.8854 90.8522H71.9C73.4021 90.8522 74.4036 89.6021 74.4036 88.352V85.8518H59.3818V88.352ZM66.8927 40.8483C57.1285 40.8483 49.3672 48.5989 49.3672 58.3496C49.3672 64.3501 52.3716 69.6005 56.8781 72.6007V78.3512C56.8781 79.6013 57.8796 80.8514 59.3818 80.8514H74.4036C75.9058 80.8514 76.9072 79.6013 76.9072 78.3512V72.6007C81.4138 69.3505 84.4182 64.1001 84.4182 58.3496C84.4182 48.5989 76.6569 40.8483 66.8927 40.8483Z" fill="var(--fill-0, #70B9BE)"/>
</g>
</svg>
