<svg preserveAspectRatio="none" width="100%" height="100%" overflow="visible" style="display: block;" viewBox="0 0 48 48" fill="none" xmlns="http://www.w3.org/2000/svg">
<g id="Icon">
<path id="Vector" d="M10 28C10 23.5817 13.5817 20 18 20V16C11.3726 16 6 21.3726 6 28V36C6 38.2091 7.79086 40 10 40H18C20.2091 40 22 38.2091 22 36V28C22 25.7909 20.2091 24 18 24H10V28ZM32 28C32 23.5817 35.5817 20 40 20V16C33.3726 16 28 21.3726 28 28V36C28 38.2091 29.7909 40 32 40H40C42.2091 40 44 38.2091 44 36V28C44 25.7909 42.2091 24 40 24H32V28Z" fill="var(--fill-0, #70B9BE)"/>
</g>
</svg>
